<svg width="12" height="12" fill="#FFF" viewBox="0 0 12 12" xmlns="http://www.w3.org/2000/svg">
<path d="M12 6C12 2.69053 9.30947 0 6 0C2.69053 0 0 2.69053 0 6C0 9.30947 2.69053 12 6 12C9.30947 12 12 9.30947 12 6ZM5.53263 9.23368L3.52421 7.22526C3.39789 7.09895 3.33474 6.93474 3.33474 6.75789C3.33474 6.58105 3.39789 6.41684 3.52421 6.29053C3.77684 6.03789 4.19368 6.03789 4.45895 6.29053L5.34316 7.17474V3.22105C5.34316 2.85474 5.63368 2.56421 6 2.56421C6.36632 2.56421 6.65684 2.85474 6.65684 3.22105V7.18737L7.54105 6.30316C7.79368 6.05053 8.21053 6.05053 8.47579 6.30316C8.72842 6.55579 8.72842 6.97263 8.47579 7.23789L6.46737 9.23368C6.20211 9.49895 5.79789 9.49895 5.53263 9.23368Z"/>
</svg>
