<svg width="25" height="25" viewBox="0 0 25 25" xmlns="http://www.w3.org/2000/svg">
<path d="M25 12.5C25 5.60527 19.3947 7.62939e-06 12.5 7.62939e-06C5.60526 7.62939e-06 0 5.60527 0 12.5C0 19.3947 5.60526 25 12.5 25C19.3947 25 25 19.3947 25 12.5ZM11.5263 19.2369L7.34211 15.0526C7.07895 14.7895 6.94737 14.4474 6.94737 14.079C6.94737 13.7105 7.07895 13.3684 7.34211 13.1053C7.86842 12.579 8.73684 12.579 9.28947 13.1053L11.1316 14.9474V6.71053C11.1316 5.94738 11.7368 5.34211 12.5 5.34211C13.2632 5.34211 13.8684 5.94738 13.8684 6.71053V14.9737L15.7105 13.1316C16.2368 12.6053 17.1053 12.6053 17.6579 13.1316C18.1842 13.6579 18.1842 14.5263 17.6579 15.079L13.4737 19.2369C12.9211 19.7895 12.0789 19.7895 11.5263 19.2369Z" fill="#A597FA"/>
</svg>
