<svg width="19" height="14" viewBox="0 0 19 14" fill="none" xmlns="http://www.w3.org/2000/svg">
<path fill-rule="evenodd" clip-rule="evenodd" d="M1.81234 0H17.854C18.4868 0 18.9998 0.513007 18.9998 1.14583C18.9998 1.77866 18.4868 2.29167 17.854 2.29167H1.81234C1.17951 2.29167 0.666504 1.77866 0.666504 1.14583C0.666504 0.513007 1.17951 0 1.81234 0ZM1.81234 5.72917H17.854C18.4868 5.72917 18.9998 6.24217 18.9998 6.875C18.9998 7.50783 18.4868 8.02083 17.854 8.02083H1.81234C1.17951 8.02083 0.666504 7.50783 0.666504 6.875C0.666504 6.24217 1.17951 5.72917 1.81234 5.72917ZM1.81234 11.4583H17.854C18.4868 11.4583 18.9998 11.9713 18.9998 12.6042C18.9998 13.237 18.4868 13.75 17.854 13.75H1.81234C1.17951 13.75 0.666504 13.237 0.666504 12.6042C0.666504 11.9713 1.17951 11.4583 1.81234 11.4583Z" fill="#35F0D0"/>
</svg>
