<svg fill="none" xmlns="http://www.w3.org/2000/svg" viewBox="0 0 212 190"><g filter="url(#filter0_d)" fill-rule="evenodd" clip-rule="evenodd"><path d="M18.925 155.664l51.634-30.003 35.597-61.705V4.462c-.939 0-1.878.619-2.59 1.85L61.4 79.406 19.24 152.499c-.711 1.233-.779 2.352-.314 3.165" fill="#FF4724"/><path d="M106.156 4.462v59.494l35.595 61.705 51.634 30.003c.466-.813.399-1.932-.312-3.165L150.91 79.406 108.745 6.312c-.713-1.233-1.652-1.85-2.589-1.85" fill="#9E1F63"/><path d="M193.385 155.664l-51.634-30.003H70.56l-51.634 30.003c.465.817 1.466 1.324 2.891 1.324h168.675c1.425 0 2.426-.507 2.893-1.324" fill="#662D91"/><path d="M70.56 125.661h71.191l-35.595-61.705L70.56 125.66z" fill="#fff"/></g><defs><filter id="filter0_d" x=".323" y=".8" width="211.665" height="189.139" filterUnits="userSpaceOnUse" color-interpolation-filters="sRGB"><feFlood flood-opacity="0" result="BackgroundImageFix"/><feColorMatrix in="SourceAlpha" values="0 0 0 0 0 0 0 0 0 0 0 0 0 0 0 0 0 0 127 0"/><feOffset dy="14.645"/><feGaussianBlur stdDeviation="9.153"/><feColorMatrix values="0 0 0 0 0 0 0 0 0 0 0 0 0 0 0 0 0 0 0.2 0"/><feBlend in2="BackgroundImageFix" result="effect1_dropShadow"/><feBlend in="SourceGraphic" in2="effect1_dropShadow" result="shape"/></filter></defs></svg>